<svg width="64" height="64" viewBox="0 0 64 64" fill="none" xmlns="http://www.w3.org/2000/svg">
<g clip-path="url(#clip0_444_19)">
<path d="M15.4304 31.1701C17.3139 34.5648 19.4824 37.8269 22.302 40.8003C25.128 43.7937 28.6401 46.5146 33.1933 48.8368C33.5307 49.0018 33.8519 49.0018 34.1369 48.8893C34.5694 48.7231 35.0106 48.3669 35.4455 47.9307C35.783 47.5945 36.2004 47.057 36.6404 46.4684C38.3889 44.1636 40.5574 41.3077 43.6158 42.7363C43.6833 42.7675 43.7345 42.8025 43.802 42.8338L54.0083 48.7031C54.0358 48.7181 54.0746 48.7556 54.1046 48.7693C55.4519 49.6955 56.0043 51.1241 56.0193 52.7389C56.0193 54.3862 55.4132 56.236 54.5245 57.8008C53.3497 59.863 51.6161 61.2291 49.6188 62.1365C47.7191 63.0114 45.6031 63.4801 43.5696 63.7801C40.3762 64.2513 37.3865 63.9513 34.3281 63.0102C31.336 62.0828 28.3251 60.5567 25.033 58.5244L24.7893 58.3682C23.2807 57.4283 21.6496 56.4172 20.0511 55.2273C14.188 50.8028 8.2212 44.4186 4.3354 37.3907C1.07579 31.4914 -0.704005 25.1234 0.269631 19.0516C0.807068 15.7232 2.2344 12.6973 4.72286 10.7C6.89135 8.95275 9.81476 7.99537 13.5981 8.33033C14.033 8.35907 14.4205 8.61404 14.6217 8.98525L21.1622 20.0465C22.1208 21.2876 22.2383 22.5149 21.7171 23.7435C21.2809 24.7547 20.4085 25.6808 19.2124 26.5507C18.86 26.8507 18.44 27.1556 18.0013 27.4756C16.5377 28.538 14.8767 29.7628 15.4454 31.2064L15.4304 31.1701ZM27.6177 25.8895C26.6078 25.6295 26.0004 24.5959 26.2616 23.586C26.5228 22.5762 27.5552 21.9687 28.5651 22.2299C31.6285 23.0286 34.5094 24.6872 36.8403 26.8632C39.1851 29.0529 41.0036 31.7888 41.9222 34.7222C42.2322 35.7209 41.6748 36.7832 40.6774 37.0932C39.68 37.4044 38.6164 36.847 38.3064 35.8496C37.5878 33.5536 36.1404 31.3889 34.2619 29.6341C32.3684 27.8655 30.0524 26.5244 27.6177 25.8895ZM27.8689 14.2984C26.8378 14.1234 26.1453 13.1435 26.3203 12.1124C26.4941 11.0825 27.4752 10.3888 28.5051 10.5638C34.2806 11.5637 39.7638 14.4959 44.1595 18.6104C48.5577 22.7249 51.8861 28.0355 53.3497 33.7911C53.6071 34.806 52.9935 35.8384 51.9786 36.0958C50.9637 36.3533 49.9313 35.7396 49.6738 34.7247C48.3865 29.6653 45.4556 24.9896 41.581 21.365C37.7152 17.7467 32.9096 15.172 27.8689 14.2984ZM29.0863 3.77586C28.0476 3.65712 27.3015 2.71723 27.4202 1.67861C27.5389 0.639977 28.4776 -0.107435 29.5162 0.0113008C37.5965 0.95744 45.1894 4.66326 51.1999 10.1114C57.2255 15.572 61.6774 22.7986 63.451 30.7614C63.676 31.7788 63.0323 32.7887 62.0136 33.0137C60.9963 33.2387 59.9864 32.595 59.7614 31.5764C58.1616 24.3959 54.1308 17.8617 48.6665 12.911C43.2258 7.98037 36.3679 4.62701 29.0863 3.77586Z" fill="#F66D2F"/>
</g>
<defs>
<clipPath id="clip0_444_19">
<rect width="63.5" height="64" fill="white"/>
</clipPath>
</defs>
</svg>
