<svg width="47" height="36" viewBox="0 0 47 36" fill="none" xmlns="http://www.w3.org/2000/svg">
<path fill-rule="evenodd" clip-rule="evenodd" d="M36.4366 17.3394H44.5629C45.6644 17.3394 46.5667 18.2417 46.5667 19.3432V27.5573C46.5667 28.6588 45.6644 29.5611 44.5629 29.5611H36.4366C33.0766 29.5611 30.3258 26.8103 30.3258 23.4502C30.3258 20.0902 33.0736 17.3394 36.4366 17.3394ZM17.2165 7.6898H22.4017C22.3929 7.54333 22.387 7.39686 22.387 7.24746C22.3899 3.24583 25.6328 0 29.6374 0C33.639 0 36.8849 3.24583 36.8849 7.24746C36.8849 7.39393 36.879 7.5404 36.8731 7.68687L38.7802 7.68394C40.7283 7.68102 42.3219 9.20726 42.3219 11.1553V11.7354C43.2828 12.3711 43.9185 13.4608 43.9185 14.6912V15.9684H41.6686V15.116C41.6686 14.199 40.9187 13.452 40.0047 13.452H19.3082V11.5977C19.3082 11.3516 19.5103 11.1495 19.7564 11.1495H23.5295C23.2805 10.7628 23.0696 10.3497 22.8967 9.91618H17.7175C17.073 9.91618 16.5486 10.4435 16.5486 11.085V32.3646C16.5486 33.009 17.0759 33.5334 17.7175 33.5334H40.4822C41.1267 33.5334 41.6511 33.0061 41.6511 32.3646V31.0258H43.9595V33.2375H43.9536C43.9448 34.7667 42.3131 36 40.7019 36H17.2077C15.4442 35.9971 14 34.5529 14 32.7893V10.9063C14 9.13695 15.4471 7.6898 17.2165 7.6898ZM36.3781 9.91326C36.2052 10.3468 35.9943 10.7599 35.7453 11.1466H40.3738C40.5027 11.1466 40.6287 11.1524 40.7547 11.1671V11.0821C40.7547 10.4376 40.2274 9.91326 39.5858 9.91326H36.3781ZM30.1208 11.1495V10.4699C30.4928 10.4552 30.8092 10.4054 31.067 10.3234C31.3248 10.2384 31.5679 10.1066 31.7993 9.92204C32.0278 9.73456 32.2153 9.50606 32.3647 9.22776C32.5112 8.9524 32.5844 8.64773 32.5844 8.31671C32.5844 7.75132 32.3794 7.28554 31.9692 6.91643C31.6587 6.64399 31.0435 6.38327 30.1208 6.1372V4.81894C30.2789 4.9039 30.3903 4.98592 30.4606 5.06795C30.528 5.14997 30.6041 5.29937 30.692 5.51322L32.3911 5.24664C32.2827 4.76035 32.0454 4.37953 31.688 4.10123C31.3277 3.82 30.8062 3.66181 30.1237 3.61787V3.16966H29.4616V3.61787C28.7146 3.65595 28.1522 3.85808 27.7713 4.22427C27.3934 4.58752 27.203 5.03865 27.203 5.5806C27.203 5.97608 27.2968 6.31003 27.4872 6.5854C27.6776 6.86077 27.8973 7.05997 28.1551 7.18594C28.4129 7.30898 28.8464 7.45838 29.4616 7.62829V9.23948C29.2478 9.13695 29.0955 9.01977 29.0017 8.88795C28.908 8.75612 28.8347 8.53934 28.7791 8.24054L26.9423 8.45439C26.998 8.75612 27.08 9.01391 27.1884 9.22776C27.2968 9.44161 27.455 9.64082 27.6542 9.82244C27.8563 10.007 28.0965 10.1535 28.3748 10.256C28.6531 10.3615 29.0164 10.4318 29.4616 10.4699V11.1495H30.1208ZM29.4587 4.79551C29.2624 4.85996 29.1277 4.93905 29.0515 5.03279C28.9753 5.12654 28.9373 5.23785 28.9373 5.36675C28.9373 5.49858 28.9753 5.61575 29.0544 5.71243C29.1335 5.81203 29.2683 5.89405 29.4616 5.96143V4.79551H29.4587ZM30.1208 9.28342C30.3785 9.22484 30.566 9.12816 30.6861 8.99634C30.8062 8.86451 30.8678 8.71511 30.8678 8.55106C30.8678 8.40752 30.815 8.27569 30.7154 8.15559C30.6129 8.03548 30.4166 7.92416 30.1208 7.82163V9.28342ZM36.7442 19.5804H43.9536V27.3259H36.7442C34.6145 27.3259 32.8715 25.5829 32.8715 23.4532C32.8715 21.3205 34.6145 19.5804 36.7442 19.5804ZM38.5166 22.1701C39.246 22.1701 39.8377 22.7618 39.8377 23.4913C39.8377 24.2207 39.246 24.8124 38.5166 24.8124C37.7871 24.8124 37.1954 24.2207 37.1954 23.4913C37.1954 22.7618 37.7871 22.1701 38.5166 22.1701Z" fill="black"/>
<path fill-rule="evenodd" clip-rule="evenodd" d="M9.75934 0C15.1507 0 19.5187 4.36802 19.5187 9.75934C19.5187 15.1507 15.1507 19.5187 9.75934 19.5187C4.36802 19.5187 0 15.147 0 9.75934C0 4.36802 4.36802 0 9.75934 0ZM5.44194 10.0197C5.57212 9.26035 6.43994 8.83728 7.12334 9.2495C7.18481 9.28566 7.24628 9.32905 7.30052 9.37967L7.30775 9.38329C7.61511 9.67618 7.95862 9.98353 8.29851 10.2873L8.5914 10.5512L12.0591 6.91362C12.2652 6.69667 12.417 6.55565 12.728 6.48694C13.7911 6.25191 14.5396 7.55364 13.7875 8.34914L9.46284 12.8835C9.05424 13.3174 8.32744 13.3572 7.88992 12.9413C7.64042 12.7099 7.36561 12.4713 7.0908 12.2326C6.6135 11.8168 6.12535 11.3937 5.7276 10.9743C5.48895 10.7356 5.38409 10.3451 5.44194 10.0197Z" fill="#38AE48"/>
</svg>
