<svg xmlns="http://www.w3.org/2000/svg" shape-rendering="geometricPrecision" text-rendering="geometricPrecision" image-rendering="optimizeQuality" fill-rule="evenodd" clip-rule="evenodd" viewBox="0 0 512 332.056"><path d="M87.555 137.431c21.421-26.47 46.108-40.864 64.648-17.318 21.244 1.116 29.513 33.604 14.915 49.641 2.558.484 4.573 2.179 5.394 4.714.518 1.611.56 3.6-.081 5.967l-2.58 7.341c-.531 1.507-1.048 2.59-2.261 3.551-.976.776-2.057 1.18-3.473 1.271-.715 7.354-4.637 11.082-9.65 15.797 5.824 10.772 18.042 12.819 28.419 14.824 15.882 3.069 35.716 18.065 35.716 35.066v6.926a2.128 2.128 0 01-2.125 2.122H51.632a2.127 2.127 0 01-2.124-2.122v-6.267c0-20.425 20.797-32.487 37.487-34.722 11.649-1.559 21.421-3.137 25.968-16.231-4.624-4.01-8.437-7.729-9.569-15.555a7.773 7.773 0 01-2.597-.921l-.301-.191c-1.743-1.103-2.962-2.814-3.786-4.715-.958-2.18-1.381-4.728-1.478-6.646v-3.147c.074-2.81.356-5.048 2.419-7.25l-.382-.197c-.834-10.426 1.608-28.514-9.714-31.938zM41.782 0h428.436C493.195 0 512 18.805 512 41.782v248.492c0 22.945-18.838 41.782-41.782 41.782H41.782C18.805 332.056 0 313.251 0 290.274V41.782C0 18.831 18.831 0 41.782 0zm218.097 222.828c-7.247 0-7.247-14.714 0-14.714h190.204c7.248 0 7.248 14.714 0 14.714H259.879zm.003 44.505c-7.253 0-7.25-14.711 0-14.711h190.201c7.251 0 7.254 14.711 0 14.711H259.882zm-.003-133.337c-7.247 0-7.25-14.71 0-14.71h136.263c7.254 0 7.251 14.71 0 14.71H259.879zm0 44.415c-7.25 0-7.247-14.712 0-14.712h190.007c7.247 0 7.251 14.712 0 14.712H259.879zm241.85-101.435H10.271v213.298c0 17.321 14.19 31.511 31.511 31.511h428.436c17.333 0 31.511-14.177 31.511-31.511V76.976zM99.332 174.575c1.333-3.816 4.431-2.59 8.848-.977-1.762-8 .317-14.248 6.581-18.578 13.363-9.246 19.4-1.332 33.882-12.994 8.321 4.188 15.765 11.273 11.972 33.403 4.013-3.043 9.801-2.758 7.981 3.981l-2.487 7.046c-.595 1.685-.993 2.296-3.124 2.183-.941-.048-1.888-.413-2.833-1.038.873 10.397-4.175 13.79-10.49 19.889-9.732 9.388-21.111 9-31.211.016-5.915-5.261-11.17-8.457-11.432-19.274-1.532.472-2.981.556-4.249-.165-2.522-1.436-3.444-5.614-3.58-8.292-.055-1.076-.01-4.103.142-5.2zm51.665 37.064c2.316 3.793 5.659 6.338 9.391 7.884-14.94 10.963-35.569 9.967-50.937.598 3.826-2.059 6.083-4.883 7.577-8.611 5.495 4.511 11.403 6.839 17.337 6.836 5.77-.003 11.435-2.196 16.632-6.707z"/></svg>