<svg width="77" height="64" viewBox="0 0 77 64" fill="none" xmlns="http://www.w3.org/2000/svg">
<g clip-path="url(#clip0_444_22)">
<path d="M29.2097 0H18.9442H10.4361C7.5518 0 5.08995 1.01187 3.0506 3.0506C1.01187 5.08995 0 7.5518 0 10.4361V28.7566C0 31.6559 1.01187 34.1184 3.0506 36.1571C5.08933 38.1809 7.5518 39.2084 10.4361 39.2084C13.1242 39.2084 15.813 39.2084 18.5011 39.2084C17.9123 41.504 17.1573 43.6946 16.2361 45.7477C15.3298 47.817 13.8042 49.7958 11.6749 51.6832C15.753 50.6264 19.3779 49.0401 22.5642 46.9414C25.751 44.8571 28.4997 42.274 30.7953 39.2084C33.1022 39.2084 35.4103 39.2084 37.7171 39.2084C40.6015 39.2084 43.0633 38.1809 45.1021 36.1571C47.142 34.1184 48.1539 31.6559 48.1539 28.7566V10.4361C48.1539 7.5518 47.142 5.08933 45.1021 3.0506C43.0633 1.01187 40.6015 0 37.7171 0H29.2097ZM76.7986 21.0392V39.3596C76.7986 41.0265 76.5017 42.584 75.9036 44.0339C75.308 45.4802 74.4193 46.7939 73.2374 47.9764C72.7237 48.4851 72.1849 48.942 71.6224 49.3439C71.0424 49.7564 70.4518 50.107 69.8474 50.3945C69.8156 50.4095 69.7824 50.4239 69.7499 50.437C68.9774 50.7964 68.1718 51.0676 67.3356 51.2489C66.4675 51.4376 65.5706 51.532 64.6412 51.532H59.1825H59.1713H59.16H59.1488H59.1388H58.8469C58.9632 51.9007 59.0838 52.2664 59.2082 52.6289C59.5632 53.6532 59.9625 54.662 60.4069 55.652L60.4132 55.6651H60.4144C60.815 56.5794 61.3494 57.4713 62.0169 58.3394C62.7056 59.2357 63.5463 60.1232 64.5375 61.0025C65.2469 61.63 65.3125 62.7131 64.6862 63.4219C64.2444 63.9212 63.5756 64.1019 62.9725 63.9456L62.9713 63.9462C60.8425 63.3938 58.8307 62.7044 56.9376 61.8781C55.0432 61.0525 53.2557 60.0844 51.5751 58.9769L51.5714 58.9819C49.9014 57.8901 48.3389 56.6601 46.8877 55.2963C45.6571 54.1401 44.5083 52.8857 43.4415 51.532H42.8615H42.8515H42.839H42.829H42.8177H37.3584C36.2221 51.532 35.1334 51.3901 34.094 51.1095C33.0534 50.8283 32.0622 50.4008 31.1216 49.8295C30.3122 49.3395 30.0535 48.2864 30.5434 47.477C31.0334 46.6677 32.0866 46.4089 32.8959 46.8989C33.5403 47.2902 34.2359 47.5877 34.9815 47.7889C35.7228 47.9889 36.5153 48.0902 37.3584 48.0902H42.8177H42.829H42.839H42.8515H42.8615H44.2808V48.097C44.8021 48.097 45.3158 48.3339 45.6514 48.7826C46.7339 50.2283 47.9314 51.5676 49.2389 52.7964C50.5301 54.0095 51.9364 55.1138 53.4526 56.1057L53.4488 56.1107L53.4526 56.1126C54.8932 57.0619 56.4382 57.9032 58.0888 58.6363C57.7763 58.1076 57.5026 57.5744 57.2676 57.0357C56.7976 55.9851 56.3644 54.887 55.9676 53.7438C55.5913 52.6576 55.2545 51.5407 54.957 50.3983C54.8913 50.2145 54.8545 50.017 54.8545 49.8108C54.8545 48.8601 55.6245 48.0902 56.5744 48.0902H59.1382H59.1482H59.1594H59.1707H59.1819H64.6406C65.3325 48.0902 65.9881 48.0227 66.6081 47.8877C67.1975 47.7602 67.7581 47.5733 68.2887 47.3283C68.3143 47.3145 68.3412 47.3008 68.3681 47.2883C68.8162 47.0745 69.2387 46.8277 69.6312 46.547C70.0412 46.2539 70.4368 45.9196 70.8156 45.5433C71.6724 44.6871 72.3099 43.7496 72.7299 42.7302C73.1487 41.7152 73.3562 40.5921 73.3562 39.359V21.0392C73.3562 19.8142 73.1487 18.6948 72.7299 17.6811C72.3099 16.6636 71.673 15.7267 70.8156 14.8699L70.8093 14.863C69.9524 14.0061 69.0162 13.3686 67.9981 12.9492C66.985 12.5311 65.8656 12.323 64.64 12.323H59.7194H56.1332C55.1826 12.323 54.412 11.5524 54.412 10.6024C54.412 9.65178 55.182 8.88179 56.1332 8.88179H59.7194H64.64C66.3 8.88179 67.8543 9.17928 69.3018 9.77678C70.7437 10.3718 72.0555 11.258 73.2362 12.4368L73.2387 12.4399L73.2424 12.443L73.2437 12.4443C74.423 13.6242 75.308 14.9355 75.9024 16.3767C76.5017 17.8254 76.7986 19.3798 76.7986 21.0392Z" fill="#F66D2F"/>
</g>
<defs>
<clipPath id="clip0_444_22">
<rect width="76.7986" height="64" fill="white"/>
</clipPath>
</defs>
</svg>
