<svg width="45" height="36" viewBox="0 0 45 36" fill="none" xmlns="http://www.w3.org/2000/svg">
<g clip-path="url(#clip0_445_29)">
<path d="M26.432 0C28.8655 0 31.1905 0.484532 33.313 1.36681C35.5151 2.27802 37.4966 3.61591 39.1563 5.27561C40.8161 6.9317 42.1503 8.91322 43.0651 11.1225C43.9438 13.2451 44.432 15.5701 44.432 18.0036C44.432 20.4371 43.9474 22.7622 43.0651 24.8847C42.1539 27.0868 40.8161 29.0719 39.1563 30.728C37.5003 32.3877 35.5187 33.722 33.3094 34.6368C31.1869 35.5155 28.8619 36.0036 26.4283 36.0036C23.9948 36.0036 21.6698 35.5191 19.5473 34.6404C17.3452 33.7292 15.3637 32.3913 13.704 30.7316L13.7003 30.728C12.0406 29.0683 10.7028 27.0868 9.79154 24.8847C9.5095 24.2013 9.26723 23.4998 9.06836 22.7802C9.44441 22.8164 9.8277 22.8345 10.2146 22.8345C10.9486 22.8345 11.6646 22.7694 12.3625 22.6428C12.4782 22.99 12.6047 23.3335 12.7421 23.6697C13.4906 25.4777 14.5899 27.1085 15.9603 28.4753C17.3271 29.8421 18.9579 30.9413 20.7658 31.6935C22.5051 32.413 24.4215 32.8144 26.4283 32.8144C28.4388 32.8144 30.3516 32.4166 32.0909 31.6935C33.8988 30.945 35.5296 29.8457 36.8964 28.4753C38.2632 27.1085 39.3625 25.4777 40.1146 23.6697C40.8341 21.9305 41.2355 20.0141 41.2355 18.0072C41.2355 15.9968 40.8377 14.084 40.1146 12.3447C39.3661 10.5368 38.2668 8.90599 36.8964 7.53917C35.5296 6.17236 33.8988 5.07312 32.0909 4.32101C30.3516 3.60145 28.4352 3.20008 26.4283 3.20008C24.4179 3.20008 22.5051 3.59783 20.7658 4.32101C20.6103 4.3861 20.4549 4.4548 20.303 4.5235C19.71 3.5906 18.994 2.74448 18.1732 2.01045C18.6216 1.77903 19.0808 1.56569 19.5473 1.37043C21.6734 0.484532 23.9985 0 26.432 0ZM24.3637 9.44476C24.3637 9.00362 24.5445 8.60225 24.8337 8.31298C25.123 8.0237 25.5208 7.84291 25.9619 7.84291C26.403 7.84291 26.8044 8.0237 27.0937 8.31298C27.3829 8.60225 27.5637 9.00362 27.5637 9.44476V17.8409L33.8373 21.5617C34.2134 21.7859 34.4665 22.1402 34.5714 22.538C34.6726 22.9321 34.6256 23.366 34.4014 23.7457C34.1772 24.1217 33.8229 24.3748 33.4251 24.4797C33.031 24.581 32.5971 24.534 32.221 24.3098L25.1845 20.1442C24.9422 20.0104 24.7433 19.8152 24.5987 19.5838C24.4504 19.3415 24.3637 19.0558 24.3637 18.7521V9.44476Z" fill="#0C2347"/>
<path fill-rule="evenodd" clip-rule="evenodd" d="M9.75934 0.925659C15.1507 0.925659 19.5187 5.29368 19.5187 10.685C19.5187 16.0763 15.1507 20.4443 9.75934 20.4443C4.36802 20.4443 0 16.0727 0 10.685C0 5.29368 4.36802 0.925659 9.75934 0.925659ZM5.44194 10.9453C5.57212 10.186 6.43994 9.76294 7.12334 10.1752C7.18481 10.2113 7.24628 10.2547 7.30052 10.3053L7.30775 10.3089C7.61511 10.6018 7.95862 10.9092 8.29851 11.2129L8.5914 11.4769L12.0591 7.83928C12.2652 7.62233 12.417 7.4813 12.728 7.4126C13.7911 7.17757 14.5396 8.4793 13.7875 9.2748L9.46284 13.8091C9.05424 14.2431 8.32744 14.2828 7.88992 13.867C7.64042 13.6356 7.36561 13.3969 7.0908 13.1583C6.6135 12.7425 6.12535 12.3194 5.7276 11.8999C5.48895 11.6613 5.38409 11.2708 5.44194 10.9453Z" fill="#38AE48"/>
</g>
<defs>
<clipPath id="clip0_445_29">
<rect width="44.4323" height="36" fill="white"/>
</clipPath>
</defs>
</svg>
