<svg width="46" height="32" viewBox="0 0 46 32" fill="none" xmlns="http://www.w3.org/2000/svg">
<path fill-rule="evenodd" clip-rule="evenodd" d="M15.4799 18.18C17.001 16.3004 18.754 15.2783 20.0705 16.9502C21.579 17.0295 22.1662 19.3364 21.1296 20.4752C21.3112 20.5096 21.4543 20.6299 21.5126 20.8099C21.5494 20.9243 21.5524 21.0656 21.5068 21.2336L21.3236 21.7549C21.2859 21.8619 21.2492 21.9388 21.1631 22.0071C21.0938 22.0622 21.017 22.0909 20.9165 22.0973C20.8657 22.6195 20.5872 22.8842 20.2312 23.2191C20.6448 23.984 21.5124 24.1293 22.2492 24.2717C23.377 24.4896 24.7854 25.5545 24.7854 26.7617V27.2535C24.7853 27.2935 24.7693 27.3318 24.7411 27.36C24.7128 27.3882 24.6745 27.4041 24.6345 27.4042H12.929C12.8891 27.4041 12.8508 27.3882 12.8225 27.36C12.7942 27.3317 12.7783 27.2935 12.7782 27.2535V26.8085C12.7782 25.3581 14.255 24.5016 15.4401 24.3429C16.2673 24.2322 16.9612 24.1202 17.2841 23.1904C16.9557 22.9056 16.685 22.6415 16.6046 22.0858C16.5397 22.0752 16.4773 22.053 16.4202 22.0204L16.3988 22.0069C16.275 21.9285 16.1885 21.807 16.13 21.6721C16.0619 21.5173 16.0319 21.3363 16.025 21.2001V20.9767C16.0303 20.7771 16.0503 20.6182 16.1968 20.4618L16.1697 20.4479C16.1104 19.7075 16.2838 18.4231 15.4799 18.18ZM12.2296 8.42114H42.6524C44.284 8.42114 45.6193 9.75647 45.6193 11.388V29.0332C45.6193 30.6625 44.2816 32.0001 42.6524 32.0001H12.2296C10.598 32.0001 9.2627 30.6648 9.2627 29.0332V11.388C9.2627 9.75831 10.5999 8.42114 12.2296 8.42114ZM27.7164 24.2439C27.2018 24.2439 27.2018 23.1991 27.7164 23.1991H41.2226C41.7373 23.1991 41.7373 24.2439 41.2226 24.2439H27.7164ZM27.7166 27.4042C27.2016 27.4042 27.2018 26.3596 27.7166 26.3596H41.2226C41.7375 26.3596 41.7377 27.4042 41.2226 27.4042H27.7166ZM27.7164 17.9361C27.2018 17.9361 27.2016 16.8915 27.7164 16.8915H37.3923C37.9074 16.8915 37.9072 17.9361 37.3923 17.9361H27.7164ZM27.7164 21.0899C27.2016 21.0899 27.2018 20.0452 27.7164 20.0452H41.2086C41.7232 20.0452 41.7235 21.0899 41.2086 21.0899H27.7164ZM44.8899 13.8871H9.99203V29.0332C9.99203 30.2631 10.9996 31.2708 12.2296 31.2708H42.6524C43.8832 31.2708 44.8899 30.2641 44.8899 29.0332V13.8871ZM16.3162 20.8175C16.4108 20.5466 16.6308 20.6336 16.9444 20.7482C16.8193 20.1801 16.967 19.7364 17.4118 19.429C18.3606 18.7724 18.7893 19.3344 19.8177 18.5063C20.4085 18.8036 20.9371 19.3067 20.6678 20.8782C20.9528 20.6621 21.3638 20.6823 21.2345 21.1609L21.0579 21.6612C21.0157 21.7808 20.9874 21.8242 20.8361 21.8162C20.7693 21.8128 20.702 21.7869 20.6349 21.7425C20.6969 22.4808 20.3385 22.7217 19.89 23.1548C19.199 23.8214 18.391 23.7939 17.6738 23.1559C17.2538 22.7823 16.8806 22.5554 16.862 21.7873C16.7532 21.8208 16.6503 21.8268 16.5603 21.7756C16.3812 21.6736 16.3157 21.3769 16.3061 21.1868C16.3022 21.1104 16.3054 20.8954 16.3162 20.8175ZM19.9848 23.4494C20.1493 23.7187 20.3867 23.8995 20.6517 24.0092C19.5908 24.7877 18.126 24.717 17.0347 24.0517C17.3064 23.9055 17.4666 23.705 17.5727 23.4402C17.9629 23.7606 18.3824 23.9259 18.8038 23.9257C19.2135 23.9254 19.6158 23.7697 19.9848 23.4494Z" fill="black"/>
<path fill-rule="evenodd" clip-rule="evenodd" d="M8.21839 0C12.7585 0 16.4368 3.67833 16.4368 8.21839C16.4368 12.7585 12.7585 16.4368 8.21839 16.4368C3.67833 16.4368 0 12.7554 0 8.21839C0 3.67833 3.67833 0 8.21839 0ZM4.58269 8.43763C4.69231 7.79819 5.4231 7.44192 5.99861 7.78905C6.05037 7.8195 6.10213 7.85604 6.14781 7.89867L6.1539 7.90172C6.41272 8.14836 6.702 8.40718 6.98822 8.66296L7.23487 8.88524L10.155 5.822C10.3286 5.6393 10.4565 5.52054 10.7183 5.46269C11.6135 5.26477 12.2439 6.36096 11.6105 7.03085L7.96871 10.8493C7.62462 11.2146 7.01258 11.2481 6.64414 10.898C6.43404 10.7031 6.20262 10.5021 5.9712 10.3012C5.56926 9.95098 5.15819 9.59472 4.82324 9.2415C4.62228 9.04054 4.53397 8.71168 4.58269 8.43763Z" fill="#38AE48"/>
</svg>
