<svg width="50" height="31" viewBox="0 0 50 31" fill="none" xmlns="http://www.w3.org/2000/svg">
<path fill-rule="evenodd" clip-rule="evenodd" d="M19.3282 16.9331C20.8765 15.0199 22.6608 13.9796 24.0008 15.6814C25.5362 15.7621 26.1339 18.1102 25.0788 19.2693C25.2637 19.3043 25.4093 19.4268 25.4686 19.61C25.5061 19.7265 25.5091 19.8702 25.4628 20.0413L25.2763 20.5719C25.2379 20.6808 25.2006 20.7591 25.1129 20.8285C25.0424 20.8846 24.9642 20.9138 24.8619 20.9204C24.8102 21.4519 24.5267 21.7214 24.1644 22.0622C24.5853 22.8407 25.4684 22.9887 26.2184 23.1336C27.3663 23.3554 28.7999 24.4393 28.7999 25.6681V26.1686C28.7998 26.2093 28.7835 26.2483 28.7548 26.277C28.726 26.3058 28.687 26.322 28.6463 26.322H16.7318C16.6911 26.322 16.6521 26.3058 16.6234 26.277C16.5946 26.2483 16.5784 26.2093 16.5783 26.1686V25.7157C16.5783 24.2394 18.0814 23.3676 19.2877 23.2061C20.1297 23.0934 20.836 22.9794 21.1646 22.033C20.8304 21.7431 20.5548 21.4743 20.473 20.9087C20.407 20.8979 20.3434 20.8753 20.2853 20.8421L20.2635 20.8283C20.1376 20.7486 20.0495 20.6249 19.9899 20.4875C19.9207 20.33 19.8901 20.1458 19.8831 20.0072V19.7797C19.8884 19.5766 19.9088 19.4149 20.0579 19.2557L20.0303 19.2415C19.97 18.4879 20.1465 17.1806 19.3282 16.9331ZM16.0199 7H46.9859C48.6466 7 50.0058 8.35917 50.0058 10.0199V27.9801C50.0058 29.6385 48.6443 31 46.9859 31H16.0199C14.3592 31 13 29.6408 13 27.9801V10.0199C13 8.36105 14.361 7 16.0199 7ZM31.7833 23.1053C31.2595 23.1053 31.2595 22.0418 31.7833 22.0418H45.5306C46.0545 22.0418 46.0545 23.1053 45.5306 23.1053H31.7833ZM31.7835 26.322C31.2593 26.322 31.2595 25.2588 31.7835 25.2588H45.5306C46.0547 25.2588 46.0549 26.322 45.5306 26.322H31.7835ZM31.7833 16.6848C31.2595 16.6848 31.2593 15.6216 31.7833 15.6216H41.6319C42.1562 15.6216 42.156 16.6848 41.6319 16.6848H31.7833ZM31.7833 19.895C31.2593 19.895 31.2595 18.8317 31.7833 18.8317H45.5164C46.0402 18.8317 46.0405 19.895 45.5164 19.895H31.7833ZM49.2635 12.5636H13.7424V27.9801C13.7424 29.232 14.768 30.2576 16.0199 30.2576H46.9859C48.2387 30.2576 49.2635 29.233 49.2635 27.9801V12.5636ZM20.1794 19.6178C20.2758 19.3419 20.4997 19.4306 20.8189 19.5471C20.6916 18.9689 20.8418 18.5173 21.2946 18.2044C22.2604 17.5361 22.6968 18.1081 23.7435 17.2652C24.3449 17.5679 24.8829 18.08 24.6088 19.6795C24.8988 19.4595 25.3172 19.4801 25.1856 19.9672L25.0059 20.4765C24.9628 20.5983 24.9341 20.6424 24.7801 20.6343C24.712 20.6308 24.6436 20.6044 24.5753 20.5592C24.6384 21.3107 24.2735 21.5559 23.8171 21.9967C23.1137 22.6753 22.2913 22.6472 21.5613 21.9979C21.1338 21.6177 20.7539 21.3867 20.735 20.6048C20.6243 20.639 20.5196 20.645 20.4279 20.5929C20.2456 20.4891 20.179 20.1871 20.1692 19.9936C20.1652 19.9158 20.1684 19.697 20.1794 19.6178ZM23.9136 22.2966C24.081 22.5708 24.3226 22.7547 24.5924 22.8665C23.5125 23.6588 22.0215 23.5868 20.9108 22.9097C21.1873 22.7609 21.3504 22.5567 21.4584 22.2873C21.8556 22.6133 22.2826 22.7816 22.7115 22.7814C23.1285 22.7812 23.538 22.6227 23.9136 22.2966Z" fill="#0C2347"/>
<path fill-rule="evenodd" clip-rule="evenodd" d="M9.75934 0C15.1507 0 19.5187 4.36802 19.5187 9.75934C19.5187 15.1507 15.1507 19.5187 9.75934 19.5187C4.36802 19.5187 0 15.147 0 9.75934C0 4.36802 4.36802 0 9.75934 0ZM5.44194 10.0197C5.57212 9.26035 6.43994 8.83728 7.12334 9.2495C7.18481 9.28566 7.24628 9.32905 7.30052 9.37967L7.30775 9.38329C7.61511 9.67618 7.95862 9.98353 8.29851 10.2873L8.5914 10.5512L12.0591 6.91362C12.2652 6.69667 12.417 6.55565 12.728 6.48694C13.7911 6.25191 14.5396 7.55364 13.7875 8.34914L9.46284 12.8835C9.05424 13.3174 8.32744 13.3572 7.88992 12.9413C7.64042 12.7099 7.36561 12.4713 7.0908 12.2326C6.6135 11.8168 6.12535 11.3937 5.7276 10.9743C5.48895 10.7356 5.38409 10.3451 5.44194 10.0197Z" fill="#38AE48"/>
</svg>
